# xmcd CD database file
#
# Track frame offsets:
#	150
#	22131
#	42744
#	64956
#	82295
#	98968
#	117553
#	131965
#	148705
#	166156
#	184980
#	203722
#
# Disc length: 2976 seconds
#
# Revision: 2
# Processed by: cddbd v1.5.1PL0 Copyright (c) Steve Scherf et al.
# Submitted via: CDex 1.51
#
DISCID=c20b9e0c
DTITLE=ジャズで聴く 松任谷由実 やさしさに包まれたなら - Tim Hardin Trio
DYEAR=2001
DGENRE=Jazz
TTITLE0=やさしさに包まれたなら
TTITLE1=ひこうき雲
TTITLE2=卒業写真
TTITLE3=あの日にかえりたい
TTITLE4=守ってあげたい
TTITLE5=よそゆき顔で
TTITLE6=青いエアメイル
TTITLE7=冷たい雨
TTITLE8=ダンデライオン
TTITLE9=シンデレラエクスプレス
TTITLE10=ノーサイド
TTITLE11=翳りゆく部屋
EXTD=YEAR: 2001
EXTT0=
EXTT1=
EXTT2=
EXTT3=
EXTT4=
EXTT5=
EXTT6=
EXTT7=
EXTT8=
EXTT9=
EXTT10=
EXTT11=
PLAYORDER=
